<svg height="512pt" viewBox="0 0 512 512" width="512pt" xmlns="http://www.w3.org/2000/svg"><path d="m512 256c0 105.78125-64.160156 196.570312-155.691406 235.589844-30.796875 13.140625-64.707032 20.410156-100.308594 20.410156-2.441406 0-4.878906-.03125-7.308594-.101562-.863281-.027344-1.722656-.058594-2.589844-.089844-.902343-.027344-1.800781-.070313-2.691406-.117188-.511718-.019531-1.019531-.042968-1.519531-.070312-.730469-.042969-1.460937-.082032-2.191406-.132813-.121094-.007812-.238281-.019531-.359375-.027343-1.011719-.0625-2.03125-.132813-3.039063-.210938-.910156-.070312-1.820312-.140625-2.730469-.21875-.390624-.03125-.78125-.070312-1.171874-.101562-.570313-.058594-1.136719-.109376-1.699219-.167969-.648438-.0625-1.289063-.121094-1.9375-.203125-.75-.070313-1.5-.148438-2.25-.238282-1-.109374-1.992188-.230468-2.980469-.359374-1.179688-.152344-2.371094-.3125-3.550781-.472657-.992188-.136719-1.980469-.289062-2.96875-.4375-1.050781-.160156-2.113281-.332031-3.171875-.511719-1.050782-.167968-2.101563-.347656-3.148438-.539062-2.390625-.421875-4.769531-.878906-7.132812-1.378906-.757813-.160156-1.507813-.320313-2.269532-.480469-1.039062-.230469-2.078124-.460937-3.117187-.710937-.960937-.210938-1.910156-.441407-2.863281-.667969-1.238282-.300781-2.480469-.613281-3.707032-.933594-.832031-.207031-1.660156-.429687-2.492187-.65625-2.167969-.582031-4.320313-1.203125-6.460937-1.832031-.929688-.28125-1.847657-.558594-2.769532-.851563-5.878906-1.828125-11.667968-3.867187-17.359375-6.097656-95.148437-37.339844-162.519531-130-162.519531-238.390625 0-141.378906 114.621094-256 256-256s256 114.621094 256 256zm0 0" fill="#68fcdf"/><path d="m512 256c0 141.378906-114.621094 256-256 256s-256-114.621094-256-256c0-46.21875 12.25-89.570312 33.679688-127 44.121093 77.070312 127.160156 129 222.320312 129s178.210938-51.929688 222.320312-129c21.429688 37.429688 33.679688 80.78125 33.679688 127zm0 0" fill="#10e2c4"/><path d="m481.261719 377.699219v.011719c-43.292969 79.96875-127.941407 134.289062-225.261719 134.289062s-181.96875-54.320312-225.261719-134.289062v-.011719zm0 0" fill="#1aba9f"/><path d="m420.128906 452.460938-.007812.007812c-43.542969 36.410156-99.371094 58.621094-160.351563 59.5-1.257812.019531-2.507812.03125-3.769531.03125-59.820312 0-114.851562-20.519531-158.429688-54.898438 11.089844-26.929687 16.910157-55.941406 16.910157-85.472656v-85.207031c0-1.640625.03125-3.28125.089843-4.910156.949219-28.761719 10.269532-55.410157 25.601563-77.589844 26.167969-37.871094 69.847656-62.703125 119.328125-62.792969h.269531c49.011719.011719 92.539063 25.019532 118.878907 62.8125 15.523437 22.257813 25.082031 48.949219 26.28125 77.570313.089843 2.039062.128906 4.089843.128906 6.160156v83.957031c0 25.519532 4.351562 50.660156 12.703125 74.402344.757812 2.160156 1.539062 4.296875 2.367187 6.429688zm0 0" fill="#323b5a"/><path d="m420.121094 452.46875c-43.542969 36.410156-99.371094 58.621094-160.351563 59.5v-370.839844c79.941407.011719 145.289063 66.5625 145.289063 146.542969v83.957031c0 25.519532 4.351562 50.660156 12.691406 74.402344.761719 2.160156 1.550781 4.308594 2.371094 6.4375zm0 0" fill="#20273a"/><path d="m330.398438 330.679688c-20.101563 5.742187-36.378907 14-46.988282 23.835937-6.199218 5.757813-14.507812 9.28125-23.644531 9.28125-9.125 0-17.441406-3.523437-23.652344-9.28125-10.597656-9.835937-26.875-18.09375-46.976562-23.835937-3.148438-.898438-2.488281-5.554688.789062-5.554688h139.6875c3.277344 0 3.941407 4.65625.785157 5.554688zm0 0" fill="#ff9f00"/><path d="m330.398438 330.679688c-20.101563 5.742187-36.378907 14-46.988282 23.835937-6.199218 5.757813-14.507812 9.28125-23.644531 9.28125v-38.675781h69.847656c3.277344.003906 3.941407 4.660156.785157 5.558594zm0 0" fill="#ed771b"/><path d="m347.863281 331.203125h-176.183593c-4.132813 0-4.972657-5.863281-.992188-7 25.347656-7.242187 45.878906-17.65625 59.253906-30.066406 7.828125-7.261719 18.3125-11.703125 29.824219-11.703125 11.519531 0 22 4.441406 29.828125 11.703125 13.371094 12.410156 33.90625 22.824219 59.261719 30.066406 3.972656 1.136719 3.136719 7-.992188 7zm0 0" fill="#ffd112"/><path d="m347.863281 331.203125h-88.097656v-48.769531c11.519531 0 22 4.441406 29.828125 11.703125 13.371094 12.410156 33.90625 22.824219 59.261719 30.066406 3.972656 1.136719 3.136719 7-.992188 7zm0 0" fill="#ff9f00"/><path d="m356.308594 491.578125v.011719c-30.796875 13.140625-64.707032 20.410156-100.308594 20.410156-2.441406 0-4.878906-.03125-7.308594-.101562-.863281-.027344-1.722656-.058594-2.589844-.089844-.902343-.027344-1.800781-.070313-2.691406-.117188-.511718-.019531-1.019531-.042968-1.519531-.070312-.730469-.042969-1.460937-.082032-2.191406-.132813-.121094-.007812-.238281-.019531-.359375-.027343-1.011719-.0625-2.03125-.132813-3.039063-.210938-.910156-.070312-1.820312-.140625-2.730469-.21875-.390624-.03125-.78125-.070312-1.171874-.101562-.570313-.058594-1.136719-.109376-1.699219-.167969-.648438-.0625-1.289063-.121094-1.9375-.203125-.75-.070313-1.5-.148438-2.25-.238282-1-.109374-1.992188-.230468-2.980469-.359374-1.179688-.152344-2.371094-.3125-3.550781-.472657-.992188-.136719-1.980469-.289062-2.96875-.4375-1.050781-.160156-2.113281-.332031-3.171875-.511719-1.050782-.167968-2.101563-.347656-3.148438-.539062-2.390625-.421875-4.769531-.878906-7.132812-1.378906-.757813-.160156-1.507813-.320313-2.269532-.480469-1.039062-.230469-2.078124-.460937-3.117187-.710937-.960937-.210938-1.910156-.441407-2.863281-.667969-1.238282-.300781-2.480469-.613281-3.707032-.933594-.832031-.207031-1.660156-.429687-2.492187-.65625-2.167969-.582031-4.320313-1.203125-6.460937-1.832031-.929688-.28125-1.847657-.558594-2.769532-.851563-5.878906-1.828125-11.667968-3.867187-17.359375-6.097656 10.320313-44.160156 49.941407-77.050781 97.25-77.050781 46.300781 0 85.242188 31.5 96.539063 74.238281zm0 0" fill="#fff"/><path d="m356.308594 491.578125c-29.707032 12.683594-62.320313 19.902344-96.539063 20.390625v-94.628906c46.300781 0 85.242188 31.5 96.539063 74.238281zm0 0" fill="#d0f6ff"/><path d="m230.664062 243.152344c0 21.695312-42.710937 39.28125-95.402343 39.28125-7.109375 0-14.03125-.320313-20.691407-.925782.949219-28.761718 10.269532-55.410156 25.597657-77.585937 50.417969 1.046875 90.496093 18.210937 90.496093 39.230469zm0 0" fill="#fff"/><path d="m404.933594 281.507812c-6.65625.609376-13.566406.925782-20.660156.925782-52.6875 0-95.40625-17.585938-95.40625-39.28125 0-20.921875 39.707031-38.019532 89.777343-39.210938 15.523438 22.257813 25.082031 48.949219 26.289063 77.566406zm0 0" fill="#d0f6ff"/><g fill="#fff"><path d="m92.363281 199.078125h-1.523437c-6.753906 0-12.230469-5.476563-12.230469-12.226563v-1.527343h-8.714844v1.527343c0 6.75-5.472656 12.226563-12.226562 12.226563h-1.523438v8.714844h1.523438c6.753906 0 12.226562 5.472656 12.226562 12.226562v1.527344h8.714844v-1.527344c0-6.753906 5.476563-12.226562 12.230469-12.226562h1.523437zm0 0"/><path d="m157.015625 93.945312h-1.523437c-6.753907 0-12.226563-5.472656-12.226563-12.226562v-1.523438h-8.714844v1.523438c0 6.753906-5.476562 12.226562-12.226562 12.226562h-1.527344v8.71875h1.527344c6.75 0 12.226562 5.472657 12.226562 12.226563v1.523437h8.714844v-1.523437c0-6.753906 5.472656-12.226563 12.226563-12.226563h1.523437zm0 0"/><path d="m391.199219 93.945312h-1.523438c-6.75 0-12.226562-5.472656-12.226562-12.226562v-1.523438h-8.714844v1.523438c0 6.753906-5.472656 12.226562-12.226563 12.226562h-1.527343v8.71875h1.527343c6.753907 0 12.226563 5.472657 12.226563 12.226563v1.523437h8.714844v-1.523437c0-6.753906 5.476562-12.226563 12.226562-12.226563h1.523438zm0 0"/><path d="m455.855469 199.078125h-1.523438c-6.753906 0-12.226562-5.476563-12.226562-12.226563v-1.527343h-8.714844v1.527343c0 6.75-5.476563 12.226563-12.230469 12.226563h-1.523437v8.714844h1.523437c6.753906 0 12.230469 5.472656 12.230469 12.226562v1.527344h8.714844v-1.527344c0-6.753906 5.472656-12.226562 12.226562-12.226562h1.523438zm0 0"/></g></svg>